<svg xmlns="http://www.w3.org/2000/svg" width="32" height="32"><symbol id="icon-close" viewBox="0 0 32 32"><path d="M18.088 16 30.37 3.719a1.481 1.481 0 0 0-2.089-2.089L16 13.911 3.719 1.615a1.487 1.487 0 1 0-2.104 2.104L13.911 16 1.615 28.282a1.484 1.484 0 0 0 .423 2.505 1.472 1.472 0 0 0 1.186-.046c.184-.089.347-.215.48-.37L16 18.09l12.281 12.281a1.477 1.477 0 0 0 2.011-.078 1.485 1.485 0 0 0 .078-2.011L18.088 16z"/></symbol><symbol id="icon-vector" viewBox="0 0 32 32"><path d="M6.133 28 18.4 16 6.133 3.733 9.866 0l16 16-16 16z"/></symbol><path d="M23.884 6.706 16 14.59 8.116 6.706a.995.995 0 0 0-1.38.031 1 1 0 0 0-.031 1.38l7.88 7.884-7.882 7.882a1.002 1.002 0 0 0-.018 1.427.998.998 0 0 0 1.427-.015l7.886-7.882 7.884 7.884a1 1 0 0 0 1.38-.03 1 1 0 0 0 .03-1.38l-7.884-7.884 7.884-7.886a1.002 1.002 0 0 0 .018-1.427.998.998 0 0 0-1.427.015v.002z"/></svg>