<!-- Generated by IcoMoon.io -->
<svg version="1.1" xmlns="http://www.w3.org/2000/svg" width="32" height="32" viewBox="0 0 32 32">
<title>close</title>
<symbol id="icon-close" viewBox="0 0 32 32">
<path d="M18.088 16l12.282-12.281c0.243-0.283 0.369-0.648 0.355-1.021s-0.169-0.727-0.433-0.99c-0.264-0.264-0.617-0.418-0.99-0.433s-0.737 0.112-1.021 0.355l-12.281 12.281-12.281-12.296c-0.279-0.279-0.657-0.436-1.052-0.436s-0.773 0.157-1.052 0.436c-0.279 0.279-0.436 0.657-0.436 1.052s0.157 0.773 0.436 1.052l12.296 12.281-12.296 12.282c-0.155 0.133-0.281 0.296-0.37 0.48s-0.139 0.384-0.147 0.588c-0.008 0.204 0.026 0.407 0.101 0.598s0.187 0.363 0.332 0.507c0.144 0.144 0.317 0.257 0.507 0.332s0.394 0.109 0.598 0.101c0.204-0.008 0.404-0.058 0.588-0.147s0.347-0.215 0.48-0.37l12.296-12.281 12.281 12.281c0.283 0.243 0.648 0.37 1.021 0.355s0.727-0.169 0.99-0.433c0.264-0.264 0.418-0.618 0.433-0.99s-0.112-0.737-0.355-1.021l-12.282-12.282z"></path>
</symbol>
<path d="M23.884 6.706l-7.884 7.884-7.884-7.884c-0.19-0.174-0.439-0.267-0.696-0.261s-0.502 0.11-0.684 0.292c-0.182 0.182-0.286 0.427-0.292 0.684s0.088 0.506 0.261 0.696l7.88 7.884-7.882 7.882c-0.096 0.092-0.173 0.202-0.226 0.324s-0.081 0.253-0.083 0.386 0.023 0.265 0.073 0.388c0.050 0.123 0.124 0.235 0.218 0.329s0.206 0.169 0.329 0.219 0.255 0.075 0.388 0.074c0.133-0.002 0.264-0.029 0.386-0.082s0.232-0.13 0.324-0.226l7.886-7.882 7.884 7.884c0.19 0.174 0.439 0.267 0.696 0.262s0.502-0.11 0.684-0.292c0.182-0.182 0.286-0.427 0.292-0.684s-0.088-0.506-0.262-0.696l-7.884-7.884 7.884-7.886c0.096-0.092 0.173-0.202 0.226-0.324s0.081-0.253 0.083-0.386c0.002-0.133-0.023-0.265-0.073-0.388s-0.124-0.235-0.218-0.329c-0.094-0.094-0.206-0.169-0.329-0.219s-0.255-0.075-0.388-0.074-0.264 0.029-0.386 0.082c-0.122 0.053-0.232 0.13-0.324 0.226v0.002z"></path>
</svg>
